<mxfile host="app.diagrams.net" modified="2024-01-18T01:40:11.776Z" agent="Mozilla/5.0 (Windows NT 10.0; Win64; x64) AppleWebKit/537.36 (KHTML, like Gecko) Chrome/120.0.0.0 Safari/537.36" version="22.1.18" etag="uWh2jDMQjMxMX22OQhUx" type="github">
  <diagram name="페이지-1" id="PXcx_R00YAgb8d3gaZEV">
    <mxGraphModel>
      <root>
        <mxCell id="0" />
        <mxCell id="1" parent="0" />
      </root>
    </mxGraphModel>
  </diagram>
</mxfile>
